<svg width="40" height="40" viewBox="0 0 40 40" fill="none" xmlns="http://www.w3.org/2000/svg">
<circle cx="20" cy="20" r="20" fill="#FE5F1E"/>
<path d="M28.8387 27.6908L23.4283 22.2804C24.2679 21.195 24.7221 19.8679 24.7221 18.4721C24.7221 16.8013 24.07 15.2346 22.8908 14.0534C21.7117 12.8721 20.1409 12.2221 18.4721 12.2221C16.8034 12.2221 15.2325 12.8742 14.0534 14.0534C12.8721 15.2325 12.2221 16.8013 12.2221 18.4721C12.2221 20.1409 12.8742 21.7117 14.0534 22.8908C15.2325 24.0721 16.8013 24.7221 18.4721 24.7221C19.8679 24.7221 21.1929 24.2679 22.2783 23.4304L27.6887 28.8387C27.7046 28.8546 27.7234 28.8672 27.7442 28.8758C27.7649 28.8844 27.7871 28.8888 27.8096 28.8888C27.832 28.8888 27.8542 28.8844 27.875 28.8758C27.8957 28.8672 27.9145 28.8546 27.9304 28.8387L28.8387 27.9325C28.8546 27.9166 28.8672 27.8978 28.8758 27.8771C28.8844 27.8563 28.8888 27.8341 28.8888 27.8117C28.8888 27.7892 28.8844 27.767 28.8758 27.7463C28.8672 27.7255 28.8546 27.7067 28.8387 27.6908ZM21.7721 21.7721C20.8888 22.6533 19.7179 23.1388 18.4721 23.1388C17.2263 23.1388 16.0555 22.6533 15.1721 21.7721C14.2909 20.8888 13.8055 19.7179 13.8055 18.4721C13.8055 17.2263 14.2909 16.0534 15.1721 15.1721C16.0555 14.2909 17.2263 13.8055 18.4721 13.8055C19.7179 13.8055 20.8909 14.2888 21.7721 15.1721C22.6533 16.0555 23.1388 17.2263 23.1388 18.4721C23.1388 19.7179 22.6533 20.8909 21.7721 21.7721Z" fill="white"/>
</svg>
